<?xml version="1.0" encoding="UTF-8"?>
<svg xmlns="http://www.w3.org/2000/svg" xmlns:xlink="http://www.w3.org/1999/xlink" width="256pt" height="256pt" viewBox="0 0 256 256" version="1.1">
<g id="surface1141144">
<rect x="0" y="0" width="256" height="256" style="fill:rgb(12.941177%,17.254902%,23.921569%);fill-opacity:1;stroke:none;"/>
<path style=" stroke:none;fill-rule:nonzero;fill:rgb(100%,100%,100%);fill-opacity:1;" d="M 159.753906 120 C 151.050781 120 144 128.058594 144 138 C 144 147.941406 151.050781 156 159.753906 156 C 168.453125 156 175.503906 147.941406 175.503906 138 C 175.503906 128.058594 168.453125 120 159.753906 120 Z M 159.753906 120 "/>
<path style=" stroke:none;fill-rule:nonzero;fill:rgb(100%,100%,100%);fill-opacity:1;" d="M 209.050781 63.753906 C 189.789062 48.269531 156.957031 44.050781 155.5625 43.878906 C 153.816406 43.652344 152.144531 44.609375 151.425781 46.210938 C 151.324219 46.433594 149.253906 51.132812 148.3125 57.339844 C 140.34375 56.292969 133.253906 56 127.933594 56 C 122.441406 56 115.066406 56.304688 106.777344 57.441406 C 105.84375 51.183594 103.746094 46.429688 103.648438 46.207031 C 102.929688 44.605469 101.257812 43.664062 99.492188 43.875 C 98.144531 44.046875 66.203125 48.273438 46.738281 63.929688 C 36.488281 73.398438 16 128.5 16 176 C 16 176.691406 16.179688 177.375 16.523438 177.980469 C 30.230469 202.058594 70.757812 211.707031 79.871094 212 C 79.914062 212 79.957031 212 80 212 C 81.210938 212 82.363281 211.449219 83.125 210.5 L 97.105469 193.027344 C 106.074219 194.8125 116.390625 196 128.097656 196 C 139.738281 196 149.992188 194.824219 158.921875 193.050781 L 172.878906 210.5 C 173.636719 211.449219 174.789062 212 176 212 C 176.042969 212 176.085938 212 176.128906 212 C 185.222656 211.707031 225.6875 202.019531 239.46875 177.8125 C 239.8125 177.210938 239.992188 176.527344 239.992188 175.832031 C 239.996094 128.421875 219.507812 73.394531 209.050781 63.753906 Z M 177.804688 203.851562 L 167.5625 191.050781 C 190.105469 185.054688 201.835938 175.667969 202.539062 175.09375 C 204.242188 173.691406 204.488281 171.179688 203.097656 169.472656 C 201.699219 167.769531 199.183594 167.511719 197.472656 168.898438 C 197.234375 169.09375 173.460938 188 128.097656 188 C 82.773438 188 58.808594 169.125 58.519531 168.894531 C 56.8125 167.503906 54.292969 167.761719 52.898438 169.476562 C 51.503906 171.1875 51.761719 173.707031 53.476562 175.105469 C 54.183594 175.679688 65.960938 185.023438 88.46875 191.019531 L 78.199219 203.855469 C 66.574219 202.5625 35.257812 193.222656 24.011719 174.910156 C 24.324219 129.679688 44.070312 77.292969 51.96875 69.984375 C 66.15625 58.578125 89.09375 53.742188 97.390625 52.304688 C 97.925781 53.957031 98.515625 56.222656 98.882812 58.746094 C 86.921875 61.0625 73.789062 65.222656 61.898438 72.601562 C 60.019531 73.765625 59.445312 76.226562 60.609375 78.105469 C 61.777344 79.988281 64.234375 80.566406 66.113281 79.394531 C 87.710938 66 114.117188 64 127.933594 64 C 141.800781 64 168.289062 66 189.890625 79.398438 C 190.546875 79.808594 191.277344 80 191.996094 80 C 193.332031 80 194.644531 79.328125 195.398438 78.109375 C 196.566406 76.230469 195.988281 73.769531 194.109375 72.605469 C 181.9375 65.050781 168.441406 60.878906 156.214844 58.597656 C 156.589844 56.125 157.171875 53.910156 157.691406 52.292969 C 166.128906 53.699219 189.730469 58.488281 203.828125 69.808594 C 211.933594 77.292969 231.671875 129.609375 231.988281 174.746094 C 220.6875 193.167969 189.40625 202.558594 177.804688 203.851562 Z M 177.804688 203.851562 "/>
<path style=" stroke:none;fill-rule:nonzero;fill:rgb(100%,100%,100%);fill-opacity:1;" d="M 96 120 C 87.164062 120 80 128.058594 80 138 C 80 147.941406 87.164062 156 96 156 C 104.835938 156 112 147.941406 112 138 C 112 128.058594 104.835938 120 96 120 Z M 96 120 "/>
</g>
</svg>
