<?xml version="1.0" encoding="UTF-8"?>
<svg xmlns="http://www.w3.org/2000/svg" xmlns:xlink="http://www.w3.org/1999/xlink" width="250pt" height="250pt" viewBox="0 0 250 250" version="1.1">
<g id="surface1148790">
<rect x="0" y="0" width="250" height="250" style="fill:rgb(12.941177%,17.254902%,23.921569%);fill-opacity:1;stroke:none;"/>
<path style=" stroke:none;fill-rule:nonzero;fill:rgb(100%,100%,100%);fill-opacity:1;" d="M 122.003906 45 C 90.238281 45 59.210938 47.457031 41.496094 51.105469 L 41.386719 51.125 L 41.289062 51.152344 C 29.867188 54.007812 21.003906 61.90625 19.089844 72.570312 L 19.089844 72.578125 C 17.011719 83.507812 15 101.714844 15 125 C 15 149.710938 17.503906 166.96875 20.097656 177.929688 C 22 188.558594 30.78125 197.058594 42.519531 199.40625 L 42.546875 199.40625 C 61.132812 203.019531 91.230469 205.5 122.5 205.5 C 153.769531 205.5 184.359375 203.019531 202.957031 199.40625 L 203.085938 199.386719 L 203.214844 199.355469 C 214.660156 196.492188 223.53125 188.5625 225.421875 177.871094 L 225.429688 177.8125 L 225.441406 177.765625 C 227.445312 164.714844 229.992188 146.925781 230.5 124.609375 L 230.5 124.503906 C 230.5 106.140625 228.457031 88.351562 225.421875 71.632812 C 223.5 60.75 214.207031 53.042969 203.273438 50.167969 L 203.007812 50.097656 L 202.726562 50.050781 C 185.375 47.5 155.75 45 122.003906 45 Z M 122.003906 55 C 155.054688 55 184.167969 57.476562 200.871094 59.910156 C 208.839844 62.066406 214.503906 67.292969 215.578125 73.371094 L 215.578125 73.398438 C 218.53125 89.648438 220.492188 106.820312 220.5 124.425781 C 220.003906 146.046875 217.554688 163.21875 215.566406 176.152344 C 214.449219 182.429688 209.351562 187.460938 200.859375 189.609375 C 183.4375 192.980469 153.148438 195.5 122.5 195.5 C 91.773438 195.5 61.878906 192.976562 44.464844 189.589844 L 44.453125 189.589844 C 36.234375 187.933594 31.039062 182.464844 29.921875 176.132812 L 29.902344 175.988281 L 29.863281 175.839844 C 27.472656 165.792969 25 149.160156 25 125 C 25 102.289062 26.996094 84.503906 28.914062 74.433594 L 28.914062 74.40625 L 28.925781 74.367188 C 30.035156 68.074219 35.140625 63.027344 43.652344 60.878906 C 59.964844 57.535156 90.835938 55 122 55 Z M 95 84.832031 L 95 165.164062 L 164.492188 125 Z M 105 102.167969 L 144.511719 125 L 105 147.832031 Z M 105 102.167969 "/>
</g>
</svg>
