<?xml version="1.0" encoding="UTF-8"?>
<svg xmlns="http://www.w3.org/2000/svg" xmlns:xlink="http://www.w3.org/1999/xlink" width="192pt" height="192pt" viewBox="0 0 192 192" version="1.1">
<g id="surface1141337">
<rect x="0" y="0" width="192" height="192" style="fill:rgb(12.941177%,17.254902%,23.921569%);fill-opacity:1;stroke:none;"/>
<path style=" stroke:none;fill-rule:nonzero;fill:rgb(100%,100%,100%);fill-opacity:1;" d="M 64 24 C 41.945312 24 24 41.945312 24 64 L 24 128 C 24 150.054688 41.945312 168 64 168 L 128 168 C 150.054688 168 168 150.054688 168 128 L 168 64 C 168 41.945312 150.054688 24 128 24 Z M 64 40 L 128 40 C 141.230469 40 152 50.769531 152 64 L 152 128 C 152 141.230469 141.230469 152 128 152 L 64 152 C 50.769531 152 40 141.230469 40 128 L 40 64 C 40 50.769531 50.769531 40 64 40 Z M 136 48 C 131.582031 48 128 51.582031 128 56 C 128 60.417969 131.582031 64 136 64 C 140.417969 64 144 60.417969 144 56 C 144 51.582031 140.417969 48 136 48 Z M 96 56 C 73.945312 56 56 73.945312 56 96 C 56 118.054688 73.945312 136 96 136 C 118.054688 136 136 118.054688 136 96 C 136 73.945312 118.054688 56 96 56 Z M 96 72 C 109.230469 72 120 82.769531 120 96 C 120 109.230469 109.230469 120 96 120 C 82.769531 120 72 109.230469 72 96 C 72 82.769531 82.769531 72 96 72 Z M 96 72 "/>
</g>
</svg>
