<?xml version="1.0" encoding="UTF-8"?>
<svg xmlns="http://www.w3.org/2000/svg" xmlns:xlink="http://www.w3.org/1999/xlink" width="250pt" height="250pt" viewBox="0 0 250 250" version="1.1">
<g id="surface1143539">
<rect x="0" y="0" width="250" height="250" style="fill:rgb(12.941177%,17.254902%,23.921569%);fill-opacity:1;stroke:none;"/>
<path style=" stroke:none;fill-rule:nonzero;fill:rgb(100%,100%,100%);fill-opacity:1;" d="M 26.5625 5 L 10 49.0625 L 10 215 L 65 215 L 65 245 L 102.03125 245 L 132.03125 215 L 177.03125 215 L 240 152.1875 L 240 5 Z M 55 30 L 215 30 L 215 140 L 185 170 L 125 170 L 95 200 L 95 170 L 55 170 Z M 100 65 L 100 135 L 130 135 L 130 65 Z M 150 65 L 150 135 L 180 135 L 180 65 Z M 150 65 "/>
</g>
</svg>
